<svg xmlns="http://www.w3.org/2000/svg" viewBox="0 0 400 300" fill="none">
  <rect width="400" height="300" fill="#05070d"/>
  <rect x="28" y="26" width="344" height="248" rx="22" fill="#070b14" stroke="#12304a"/>

  <g opacity="0.26" stroke="#12304a" stroke-width="1">
    <path d="M58 70H342"/>
    <path d="M58 120H342"/>
    <path d="M58 170H342"/>
    <path d="M58 220H342"/>
    <path d="M92 48V252"/>
    <path d="M146 48V252"/>
    <path d="M200 48V252"/>
    <path d="M254 48V252"/>
    <path d="M308 48V252"/>
  </g>

  <g stroke-linecap="round" stroke-linejoin="round">
    <path d="M92 220L146 170L200 170L254 120L308 120" stroke="#4efcff" stroke-width="5"/>
    <path d="M92 120L146 120L200 70L254 70L308 120" stroke="#8a5cff" stroke-width="4" opacity="0.9"/>
    <path d="M146 220L200 220L254 170L308 220" stroke="#ff3d81" stroke-width="5"/>
    <path d="M92 170L146 120L200 120" stroke="#f8e35f" stroke-width="3" opacity="0.9"/>
  </g>

  <g filter="url(#glow)">
    <circle cx="92" cy="220" r="8" fill="#4efcff"/>
    <circle cx="146" cy="170" r="8" fill="#4efcff"/>
    <circle cx="200" cy="170" r="8" fill="#4efcff"/>
    <circle cx="254" cy="120" r="8" fill="#4efcff"/>
    <circle cx="308" cy="120" r="8" fill="#4efcff"/>

    <circle cx="92" cy="120" r="7" fill="#8a5cff"/>
    <circle cx="146" cy="120" r="7" fill="#8a5cff"/>
    <circle cx="200" cy="70" r="7" fill="#8a5cff"/>
    <circle cx="254" cy="70" r="7" fill="#8a5cff"/>

    <circle cx="146" cy="220" r="8" fill="#ff3d81"/>
    <circle cx="200" cy="220" r="8" fill="#ff3d81"/>
    <circle cx="254" cy="170" r="8" fill="#ff3d81"/>
    <circle cx="308" cy="220" r="8" fill="#ff3d81"/>
  </g>

  <circle cx="200" cy="150" r="56" fill="url(#centerGlow)" opacity="0.7"/>
  <path d="M172 150H228" stroke="#eafcff" stroke-width="2" stroke-linecap="round" opacity="0.75"/>
  <path d="M200 122V178" stroke="#eafcff" stroke-width="2" stroke-linecap="round" opacity="0.75"/>
  <circle cx="200" cy="150" r="12" fill="#eafcff"/>
  <circle cx="200" cy="150" r="20" stroke="#4efcff" stroke-width="2" opacity="0.7"/>

  <defs>
    <radialGradient id="centerGlow" cx="0" cy="0" r="1" gradientUnits="userSpaceOnUse" gradientTransform="translate(200 150) rotate(90) scale(88)">
      <stop stop-color="#4efcff" stop-opacity="0.55"/>
      <stop offset="0.55" stop-color="#8a5cff" stop-opacity="0.22"/>
      <stop offset="1" stop-color="#05070d" stop-opacity="0"/>
    </radialGradient>
    <filter id="glow" x="48" y="26" width="304" height="238" filterUnits="userSpaceOnUse" color-interpolation-filters="sRGB">
      <feGaussianBlur stdDeviation="4" result="blur"/>
      <feMerge>
        <feMergeNode in="blur"/>
        <feMergeNode in="SourceGraphic"/>
      </feMerge>
    </filter>
  </defs>
</svg>
